<?xml version="1.0" encoding="UTF-8"?>
<svg id="Layer_2" data-name="Layer 2" xmlns="http://www.w3.org/2000/svg" viewBox="0 0 30.71 8.88">
  <defs>
    <style>
      .cls-1 {
        fill: #f64c3e;
      }
    </style>
  </defs>
  <g id="design">
    <path class="cls-1" d="M26.38,8.79c-.18-.19-.18-.37,0-.55l3.08-3.41H.37c-.25,0-.37-.12-.37-.37s.12-.37,.37-.37H29.46l-3.08-3.4c-.18-.19-.18-.37,0-.55s.37-.18,.55,0c2.42,2.67,3.65,4.02,3.68,4.05,.06,.06,.09,.15,.09,.28s-.03,.21-.09,.28l-3.68,4.05c-.06,.06-.15,.09-.28,.09s-.21-.03-.28-.09Z"/>
  </g>
</svg>