<?xml version="1.0" encoding="utf-8"?>
<!-- Generator: Adobe Illustrator 16.0.0, SVG Export Plug-In . SVG Version: 6.00 Build 0)  -->
<!DOCTYPE svg PUBLIC "-//W3C//DTD SVG 1.1//EN" "http://www.w3.org/Graphics/SVG/1.1/DTD/svg11.dtd">
<svg version="1.1" xmlns="http://www.w3.org/2000/svg" xmlns:xlink="http://www.w3.org/1999/xlink" x="0px" y="0px"
	 width="30.705px" height="8.882px" viewBox="0 0 30.705 8.882" enable-background="new 0 0 30.705 8.882" xml:space="preserve">
<g id="Layer_1">
	<path fill="#F64C3E" d="M26.379,8.79c-0.184-0.186-0.184-0.369,0-0.553l3.082-3.406H0.367C0.121,4.831,0,4.71,0,4.464
		s0.121-0.369,0.367-0.369h29.094L26.379,0.69c-0.184-0.186-0.184-0.369,0-0.553s0.367-0.184,0.553,0
		c2.422,2.67,3.65,4.02,3.682,4.049c0.061,0.062,0.092,0.154,0.092,0.277s-0.031,0.215-0.092,0.275L26.932,8.79
		c-0.062,0.061-0.154,0.092-0.277,0.092S26.439,8.851,26.379,8.79z"/>
</g>
<g id="Layer_2" display="none">
</g>
</svg>
