<?xml version="1.0" encoding="utf-8"?>
<!-- Generator: Adobe Illustrator 16.0.0, SVG Export Plug-In . SVG Version: 6.00 Build 0)  -->
<!DOCTYPE svg PUBLIC "-//W3C//DTD SVG 1.1//EN" "http://www.w3.org/Graphics/SVG/1.1/DTD/svg11.dtd">
<svg version="1.1" xmlns="http://www.w3.org/2000/svg" xmlns:xlink="http://www.w3.org/1999/xlink" x="0px" y="0px"
	 width="30.705px" height="8.882px" viewBox="0 0 30.705 8.882" enable-background="new 0 0 30.705 8.882" xml:space="preserve">
<g id="Layer_1">
	<path fill="#F64C3E" d="M4.326,0.092c0.184,0.186,0.184,0.369,0,0.553L1.244,4.051h29.094c0.246,0,0.367,0.121,0.367,0.367
		s-0.121,0.369-0.367,0.369H1.244l3.082,3.404c0.184,0.186,0.184,0.369,0,0.553s-0.367,0.184-0.553,0
		c-2.422-2.67-3.65-4.02-3.682-4.049C0.031,4.633,0,4.541,0,4.418s0.031-0.215,0.092-0.275l3.682-4.051C3.836,0.031,3.928,0,4.051,0
		S4.266,0.031,4.326,0.092z"/>
</g>
<g id="Layer_2" display="none">
</g>
</svg>
