<?xml version="1.0" encoding="utf-8"?>
<!-- Generator: Adobe Illustrator 16.0.0, SVG Export Plug-In . SVG Version: 6.00 Build 0)  -->
<!DOCTYPE svg PUBLIC "-//W3C//DTD SVG 1.1//EN" "http://www.w3.org/Graphics/SVG/1.1/DTD/svg11.dtd">
<svg version="1.1" xmlns="http://www.w3.org/2000/svg" xmlns:xlink="http://www.w3.org/1999/xlink" x="0px" y="0px" width="56.8px"
	 height="39.045px" viewBox="0 0 56.8 39.045" enable-background="new 0 0 56.8 39.045" xml:space="preserve">
<g id="Layer_1">
	<g>
		<path fill="#F64C3E" d="M14.381,8.442c0,4.594-3.41,8.119-7.887,8.119H0V0.325h6.494C10.971,0.325,14.381,3.85,14.381,8.442z
			 M10.809,8.442c0-2.783-1.764-4.547-4.314-4.547H3.711v9.094h2.783C9.045,12.989,10.809,11.226,10.809,8.442z"/>
		<path fill="#F64C3E" d="M15.341,8.442c0-4.778,3.78-8.442,8.442-8.442c4.663,0,8.443,3.664,8.443,8.442
			c0,4.779-3.78,8.443-8.443,8.443C19.121,16.886,15.341,13.222,15.341,8.442z M28.516,8.442c0-2.898-2.088-4.824-4.732-4.824
			s-4.73,1.926-4.73,4.824c0,2.899,2.086,4.824,4.73,4.824S28.516,11.342,28.516,8.442z"/>
		<path fill="#F64C3E" d="M44.414,3.896h-4.176v12.666h-3.711V3.896h-4.176v-3.57h12.062V3.896z"/>
		<path fill="#F64C3E" d="M9.51,35.149v3.572H0V22.485h3.711v12.664H9.51z"/>
		<path fill="#F64C3E" d="M11.047,33.479V22.485h3.711v10.668c0,1.23,0.58,2.275,2.553,2.275c1.971,0,2.551-1.045,2.551-2.275
			V22.485h3.711v10.994c0,3.479-2.689,5.566-6.262,5.566S11.047,36.958,11.047,33.479z"/>
		<path fill="#F64C3E" d="M38.451,22.485v16.236h-2.783l-6.262-8.814v8.814h-3.712V22.485h2.783l6.263,8.814v-8.814H38.451z"/>
		<path fill="#F64C3E" d="M56.8,31.067c0,4.963-3.456,7.979-8.003,7.979c-5.103,0-8.768-3.758-8.768-8.42
			c0-4.709,3.734-8.465,8.514-8.465c3.107,0,5.729,1.529,7.098,3.709l-3.155,1.811c-0.673-1.068-2.134-1.902-3.966-1.902
			c-2.738,0-4.778,2.018-4.778,4.871c0,2.76,1.948,4.779,5.103,4.779c2.157,0,3.572-0.951,4.152-2.506h-4.338v-3.248H56.8V31.067z"
			/>
	</g>
</g>
<g id="Layer_2" display="none">
	<circle display="inline" fill="#4D05E8" cx="0" cy="18.501" r="8.885"/>
</g>
</svg>
